<?xml version="1.0" standalone="no"?>
<svg version="1.0" xmlns="http://www.w3.org/2000/svg"
 width="512.000000pt" height="512.000000pt" viewBox="0 0 512.000000 512.000000"
 preserveAspectRatio="xMidYMid meet">

<g transform="translate(0.000000,512.000000) scale(0.100000,-0.100000)"
fill="#000000" stroke="none">
<path d="M0 2560 l0 -2560 2560 0 2560 0 0 2560 0 2560 -2560 0 -2560 0 0
-2560z m2672 1169 c88 -18 206 -81 280 -149 l67 -61 -84 -86 -84 -86 -38 37
c-21 20 -67 51 -103 69 -60 30 -72 32 -165 32 -93 0 -104 -3 -160 -32 -33 -17
-78 -48 -99 -68 l-40 -36 -83 83 -84 83 63 60 c139 132 345 192 530 154z
m-699 -572 c89 -33 148 -69 218 -135 l60 -57 -85 -84 -84 -84 -49 43 c-26 23
-70 54 -98 68 -44 24 -62 27 -145 27 -85 0 -101 -3 -149 -28 -69 -37 -133
-103 -168 -175 -25 -51 -28 -67 -28 -162 0 -93 3 -112 27 -162 32 -69 98 -137
170 -175 47 -25 63 -28 148 -28 85 0 101 3 153 30 33 16 79 47 104 69 l45 39
84 -84 85 -84 -53 -49 c-122 -112 -234 -163 -379 -173 -267 -18 -514 148 -606
407 -35 100 -43 263 -18 360 28 108 80 196 170 286 90 91 182 144 295 169 89
20 219 12 303 -18z m1450 18 c223 -47 409 -231 462 -458 19 -80 19 -214 0
-295 -59 -251 -284 -447 -537 -468 -136 -12 -255 21 -378 103 -67 44 -147 111
-139 116 3 1 43 39 90 85 l85 83 45 -41 c24 -22 69 -53 99 -68 48 -23 67 -27
145 -27 77 0 98 4 147 27 150 70 240 246 208 405 -26 128 -118 242 -230 284
-44 17 -71 20 -135 17 -92 -5 -159 -34 -230 -99 -23 -21 -46 -39 -51 -39 -5 0
-47 38 -92 83 l-84 84 64 57 c74 68 218 142 298 155 84 13 158 12 233 -4z
m-770 -513 l97 -97 -103 -103 -102 -102 -103 103 -104 104 103 96 c57 54 106
97 109 97 3 0 49 -44 103 -98z m-362 -885 c21 -19 65 -47 96 -63 52 -26 68
-29 153 -29 107 0 163 19 253 89 27 21 50 36 50 34 1 -2 38 -41 82 -87 l80
-83 -60 -54 c-124 -112 -259 -159 -430 -151 -149 7 -270 57 -390 162 l-50 44
85 86 c46 47 86 85 88 85 2 0 21 -15 43 -33z"/>
</g>
</svg>
